<svg fill="#46483A" height="448pt" viewBox="-80 0 448 448" width="448pt" xmlns="http://www.w3.org/2000/svg"><path d="m112 16h64v-8c0-4.417969-3.582031-8-8-8h-48c-4.417969 0-8 3.582031-8 8zm0 0"/><path d="m288 72c0-4.417969-3.582031-8-8-8h-40c-13.253906 0-24-10.746094-24-24 0-4.417969-3.582031-8-8-8h-136c-4.417969 0-8 3.582031-8 8 0 13.253906-10.746094 24-24 24h-32c-4.417969 0-8 3.582031-8 8v8h288zm0 0"/><path d="m32 432h232v16h-232zm0 0"/><path d="m47.113281 416h193.773438l30.113281-256h-254zm168.886719-216.71875c.398438-4.417969 4.300781-7.679688 8.71875-7.28125s7.679688 4.300781 7.28125 8.71875l-16 176c-.375 4.136719-3.847656 7.296875-8 7.28125-.238281 0-.488281 0-.726562 0-2.125-.183594-4.085938-1.210938-5.453126-2.847656-1.363281-1.636719-2.019531-3.75-1.820312-5.871094zm-56 .71875c0-4.417969 3.582031-8 8-8s8 3.582031 8 8v176c0 4.417969-3.582031 8-8 8s-8-3.582031-8-8zm-48 0c0-4.417969 3.582031-8 8-8s8 3.582031 8 8v176c0 4.417969-3.582031 8-8 8s-8-3.582031-8-8zm-48.71875-8c2.121094-.199219 4.238281.457031 5.875 1.824219 1.636719 1.367187 2.660156 3.332031 2.84375 5.457031l16 176c.199219 2.121094-.457031 4.238281-1.824219 5.875-1.367187 1.636719-3.332031 2.660156-5.457031 2.84375-.238281 0-.488281 0-.726562 0-4.148438.011719-7.617188-3.148438-7.992188-7.28125l-16-176c-.199219-2.121094.457031-4.238281 1.824219-5.875 1.367187-1.636719 3.332031-2.660156 5.457031-2.84375zm0 0"/><path d="m0 128h288v16h-288zm0 0"/></svg>